# xmcd
#
# Track frame offsets:
#	150
#	22770
#	40745
#	61151
#	78575
#	94133
#	111393
#	126843
#	143453
#
# Disc length: 2243 seconds
#
# Revision: 1
# Processed by: cddbd v1.5.2PL0 Copyright (c) Steve Scherf et al.
# Submitted via: audiograbber 1.83.01
#
DISCID=6b08c109
DTITLE=Elles Bailey - Blacktop Companion
DYEAR=2019
DGENRE=Blues
TTITLE0=Angel From Montgomery
TTITLE1=Devil Comes Knocking
TTITLE2=When I Go Away (MWS Sessions)
TTITLE3=Wild Wild West (MWS Sessions)
TTITLE4=Help Somebody (MWS Sessions)
TTITLE5=What's The Matter With You (MWS Sessions)
TTITLE6=Medicine Man (Acoustic )
TTITLE7=Miss Me When I'm Gone (Acoustic )
TTITLE8=Fall Under Your Spell
EXTD=
EXTT0=
EXTT1=
EXTT2=
EXTT3=
EXTT4=
EXTT5=
EXTT6=
EXTT7=
EXTT8=
PLAYORDER=
